<mxfile host="app.diagrams.net" modified="2022-10-18T09:05:23.813Z" agent="5.0 (Macintosh; Intel Mac OS X 10_15_7) AppleWebKit/537.36 (KHTML, like Gecko) Chrome/106.0.0.0 Safari/537.36" etag="fhRbB8pwNitLgFYM9olW" version="20.4.1" type="github">
  <diagram id="86Cjv1fcPwAXiLOL4EoS" name="第 1 页">
    <mxGraphModel dx="1406" dy="670" grid="1" gridSize="10" guides="1" tooltips="1" connect="1" arrows="1" fold="1" page="1" pageScale="1" pageWidth="827" pageHeight="1169" math="0" shadow="0">
      <root>
        <mxCell id="0" />
        <mxCell id="1" parent="0" />
        <mxCell id="yYdtuyeu0fVXNVie-lLk-1" value="&lt;strong style=&quot;box-sizing: border-box; background-color: inherit; color: rgb(181, 48, 46); font-family: -apple-system, BlinkMacSystemFont, &amp;quot;Helvetica Neue&amp;quot;, Helvetica, &amp;quot;PingFang SC&amp;quot;, &amp;quot;Microsoft YaHei&amp;quot;, sans-serif; font-size: 16px; orphans: 4; text-align: justify; word-spacing: 0.8px; text-size-adjust: auto;&quot;&gt;obp-mall&lt;/strong&gt;" style="rounded=1;whiteSpace=wrap;html=1;" vertex="1" parent="1">
          <mxGeometry x="40" y="555" width="160" height="60" as="geometry" />
        </mxCell>
        <mxCell id="yYdtuyeu0fVXNVie-lLk-2" value="&lt;span style=&quot;caret-color: rgb(40, 44, 52); color: rgb(40, 44, 52); font-family: -apple-system, BlinkMacSystemFont, &amp;quot;Helvetica Neue&amp;quot;, Helvetica, &amp;quot;PingFang SC&amp;quot;, &amp;quot;Microsoft YaHei&amp;quot;, sans-serif; font-size: 16px; orphans: 4; text-align: justify; word-spacing: 0.8px; text-size-adjust: auto; background-color: rgb(254, 254, 254);&quot;&gt;C端&lt;/span&gt;" style="text;html=1;align=center;verticalAlign=middle;resizable=0;points=[];autosize=1;strokeColor=none;fillColor=none;" vertex="1" parent="1">
          <mxGeometry x="90" y="520" width="50" height="30" as="geometry" />
        </mxCell>
        <mxCell id="yYdtuyeu0fVXNVie-lLk-3" value="&lt;span style=&quot;caret-color: rgb(40, 44, 52); color: rgb(40, 44, 52); font-family: -apple-system, BlinkMacSystemFont, &amp;quot;Helvetica Neue&amp;quot;, Helvetica, &amp;quot;PingFang SC&amp;quot;, &amp;quot;Microsoft YaHei&amp;quot;, sans-serif; font-size: 16px; font-style: normal; font-variant-caps: normal; font-weight: normal; letter-spacing: normal; orphans: 4; text-align: justify; text-indent: 0px; text-transform: none; word-spacing: 0.8px; text-size-adjust: auto; -webkit-text-stroke-width: 0px; background-color: rgb(254, 254, 254); text-decoration: none; float: none; display: inline !important;&quot;&gt;商家后台端&lt;/span&gt;" style="text;whiteSpace=wrap;html=1;fontSize=13;" vertex="1" parent="1">
          <mxGeometry x="360" y="510" width="110" height="40" as="geometry" />
        </mxCell>
        <mxCell id="yYdtuyeu0fVXNVie-lLk-4" value="&lt;strong style=&quot;box-sizing: border-box; background-color: inherit; color: rgb(181, 48, 46); font-family: -apple-system, BlinkMacSystemFont, &amp;quot;Helvetica Neue&amp;quot;, Helvetica, &amp;quot;PingFang SC&amp;quot;, &amp;quot;Microsoft YaHei&amp;quot;, sans-serif; font-size: 16px; orphans: 4; text-align: justify; word-spacing: 0.8px; text-size-adjust: auto;&quot;&gt;obp-merchant&lt;/strong&gt;" style="rounded=1;whiteSpace=wrap;html=1;fontSize=13;" vertex="1" parent="1">
          <mxGeometry x="320" y="555" width="180" height="60" as="geometry" />
        </mxCell>
        <mxCell id="yYdtuyeu0fVXNVie-lLk-5" value="&lt;span style=&quot;caret-color: rgb(40, 44, 52); color: rgb(40, 44, 52); font-family: -apple-system, BlinkMacSystemFont, &amp;quot;Helvetica Neue&amp;quot;, Helvetica, &amp;quot;PingFang SC&amp;quot;, &amp;quot;Microsoft YaHei&amp;quot;, sans-serif; font-size: 16px; orphans: 4; text-align: justify; word-spacing: 0.8px; text-size-adjust: auto; background-color: rgb(254, 254, 254);&quot;&gt;运营平台端&lt;/span&gt;" style="text;whiteSpace=wrap;html=1;fontSize=13;" vertex="1" parent="1">
          <mxGeometry x="640" y="510" width="110" height="40" as="geometry" />
        </mxCell>
        <mxCell id="yYdtuyeu0fVXNVie-lLk-6" value="&lt;strong style=&quot;box-sizing: border-box; background-color: inherit; color: rgb(181, 48, 46); font-family: -apple-system, BlinkMacSystemFont, &amp;quot;Helvetica Neue&amp;quot;, Helvetica, &amp;quot;PingFang SC&amp;quot;, &amp;quot;Microsoft YaHei&amp;quot;, sans-serif; font-size: 16px; orphans: 4; text-align: justify; word-spacing: 0.8px; text-size-adjust: auto;&quot;&gt;obp-work&lt;/strong&gt;" style="rounded=1;whiteSpace=wrap;html=1;fontSize=13;" vertex="1" parent="1">
          <mxGeometry x="600" y="555" width="180" height="60" as="geometry" />
        </mxCell>
      </root>
    </mxGraphModel>
  </diagram>
</mxfile>
